<svg width="781" height="190" viewBox="0 0 781 190" fill="none" xmlns="http://www.w3.org/2000/svg">
<path d="M276.264 113.575L242.663 189.446H234.752L201.151 113.575H209.822L238.87 179.475L268.134 113.575H276.264Z" fill="white"/>
<path d="M284.068 113.575H292.086V189.446H284.068V113.575Z" fill="white"/>
<path d="M367.313 182.51V189.446H313.659V113.575H365.684V120.491H321.68V147.497H360.917V154.325H321.68V182.51H367.313Z" fill="white"/>
<path d="M446.346 113.575V189.446H439.842L391.068 127.883V189.446H383.048V113.575H389.66L438.542 175.138V113.575H446.346Z" fill="white"/>
<path d="M531.41 113.575V189.446H524.906L476.131 127.883V189.446H468.024V113.575H474.528L523.41 175.138V113.575H531.41Z" fill="white"/>
<path d="M600.56 169.178H558.29L549.185 189.446H540.838L575.523 113.575H583.435L618.119 189.446H609.666L600.56 169.178ZM597.64 162.675L579.425 121.921L561.242 162.675H597.64Z" fill="white"/>
<path d="M351.091 68.7622C351.091 71.7806 349.892 74.6753 347.757 76.8096C345.623 78.9439 342.728 80.143 339.71 80.143H294.057C292.562 80.143 291.082 79.8486 289.702 79.2767C288.321 78.7047 287.066 77.8664 286.009 76.8096C284.953 75.7528 284.114 74.4982 283.542 73.1174C282.97 71.7367 282.676 70.2567 282.676 68.7622V11.9664C282.676 10.4719 282.97 8.99198 283.542 7.6112C284.114 6.23042 284.953 4.97582 286.009 3.91902C287.066 2.86222 288.321 2.02391 289.702 1.45198C291.082 0.88004 292.562 0.585667 294.057 0.585667H339.71C342.728 0.585667 345.623 1.78471 347.757 3.91902C349.892 6.05333 351.091 8.94807 351.091 11.9664V23.1953H338.084V12.0307H295.938V68.9784H338.123V57.5333H351.129L351.091 68.7622Z" fill="#F0D3A8"/>
<path d="M480.945 80.143H467.932V0.585667H480.945V80.143Z" fill="#F0D3A8"/>
<path d="M566.912 80.143H521.541C520.047 80.143 518.569 79.8484 517.189 79.2762C515.81 78.704 514.557 77.8653 513.502 76.8082C512.447 75.7511 511.611 74.4963 511.041 73.1157C510.472 71.735 510.18 70.2556 510.183 68.7622V11.9664C510.18 10.473 510.472 8.9936 511.041 7.61296C511.611 6.23232 512.447 4.97753 513.502 3.92042C514.557 2.86331 515.81 2.02465 517.189 1.45243C518.569 0.880204 520.047 0.585664 521.541 0.585667H566.912C569.926 0.591828 572.815 1.79359 574.945 3.92723C577.074 6.06087 578.27 8.9521 578.27 11.9664V68.7622C578.27 71.7765 577.074 74.6678 574.945 76.8014C572.815 78.935 569.926 80.1368 566.912 80.143ZM565.308 68.9784V12.0307H523.124V68.9784H565.308Z" fill="#F0D3A8"/>
<path d="M43.7469 0.585667V68.9784H13.0064V57.5333H0V68.8265C0.0832858 71.82 1.31702 74.6662 3.44472 76.7736C5.57242 78.8809 8.43041 80.0871 11.4246 80.1416H45.415C46.9783 80.1042 48.5139 79.7214 49.9118 79.0207C51.3097 78.3199 52.5353 77.3186 53.5007 76.0885C55.4359 74.129 56.5915 71.532 56.752 68.7827V0.585667H43.7469Z" fill="#F0D3A8"/>
<path d="M142.27 0.585667V68.6965H100.086V0.585667H87.0792V68.7827C87.0792 71.7914 88.273 74.6771 90.3985 76.8064C92.524 78.9358 95.4076 80.1348 98.4162 80.1402H155.168V0.585667H142.27Z" fill="#F0D3A8"/>
<path d="M439.362 0.585667H377.905V12.0307H402.9V80.143H415.864V12.0307H440.879V0.585667H439.362Z" fill="#F0D3A8"/>
<path d="M240.514 0.585666V67.7865H238.888L208.236 0.281887H185.365V80.1416H198.328V12.6383H199.932L230.72 80.143H253.456V0.585666H240.514Z" fill="#F0D3A8"/>
<path d="M662.945 0.585666V67.7865H661.319L630.667 0.281887H607.796V80.1416H620.759V12.6383H622.363L653.151 80.143H675.891V0.585666H662.945Z" fill="#F0D3A8"/>
<path d="M780.411 15.6939L764.742 0L740.419 24.3434L716.076 0L700.403 15.6939L724.746 40.0168L700.403 64.3396L716.076 80.0335L740.419 55.6901L749.871 46.2387L753.122 42.9875L774.254 64.1001L771.002 67.3514L749.867 46.2374L746.637 49.4667L767.751 70.6027L764.5 73.8539L743.368 52.7194L740.421 55.6887L764.744 80.0321L780.411 64.3396L756.093 40.0168L780.411 15.6939ZM716.333 6.17684L737.447 27.2909L734.196 30.564L713.063 9.42947L716.333 6.17684ZM706.578 15.932L709.829 12.6807L730.943 33.7947L727.692 37.046L706.578 15.932ZM706.578 64.0988L764.5 6.17684L767.751 9.4281L709.832 67.3528L706.578 64.0988ZM716.333 73.8539L713.06 70.6027L771.004 12.6807L774.255 15.932L716.333 73.8539Z" fill="#F0D3A8"/>
</svg>
